<?xml version="1.0" encoding="utf-8"?>
<!-- Generator: Adobe Illustrator 21.1.0, SVG Export Plug-In . SVG Version: 6.00 Build 0)  -->
<svg version="1.1" id="Calque_1" xmlns="http://www.w3.org/2000/svg" xmlns:xlink="http://www.w3.org/1999/xlink" x="0px" y="0px"
	 viewBox="0 0 432 432" style="enable-background:new 0 0 432 432;" xml:space="preserve">
<style type="text/css">
	.st0{fill:#E56D48;}
	.st1{fill:#1C1D1C;}
	.st2{fill:#6D9953;}
	.st3{fill:#0D0D0D;}
	.st4{fill:#EAB063;}
	.st5{fill:#C53C46;}
	.st6{fill:#5BB063;}
	.st7{fill:#222323;}
	.st8{fill:#CFA828;}
	.st9{fill:#373636;}
	.st10{fill:#AB94C6;}
	.st11{fill:#4B6939;}
	.st12{fill:#3B2F27;}
	.st13{fill:#F9C46F;}
	.st14{fill:#2C2C54;}
	.st15{fill:#1A1A31;}
	.st16{fill:#020203;}
	.st17{fill:#232451;}
	.st18{fill:#B31917;}
	.st19{fill:#C6C6C6;}
	.st20{fill:#B8965A;}
	.st21{fill:#292929;}
	.st22{fill:#B476B0;}
</style>
<g>
	<g>
		<path class="st2" d="M367.5,269.4c-1.4-1.2-2.9-2.3-4.5-3.3c-0.3-0.2-0.6-0.2-0.9,0c-0.8,0.6-1.1,1.3-0.5,2
			c0.2,0.2,0.3,0.4,0.1,0.6c-1.7,2.7-5.2,5.4-7,2.8c-3.5-4.9,0-28.6-1.2-41.1c-1.9-20.3-19.4-28-37.4-8c-0.3,0.3-0.5,0.7-0.9,0.9
			c-0.9-1.4-2.8-5-7.8-7.6c-14.6-7.6-23.6,2-24.8,2.2c-0.3-4.1,0.2-3.4-9.2-3.6c-15.1-0.2-16.6-1.6-16.1,1.7
			c0.2,1.1,0.9,1.2,2.1,1.1c0.6,0,0.5,0.5,0.4,1.1c-0.3,14.7-0.5,25.9-0.4,33.4c0,2.7-7.8,15.6-13.5,17.3c-3.8,1.2-3.9-4.7-4.4-13.8
			c-0.7-11.3-1.1-69.7-0.4-97.2c1,1.7,1.8,3.3,2.3,4.6c0.3,0.7,0.6,1.4,1,2c0.8,1.2,1.9,1.2,2.7,0c0.7-1.1,1.5-3.3,1.9-4.5
			c20.7,16.7,19.9,45.3,20.7,47.2c0.5,1.3,1.9,0.9,2.7-0.6c4.9-10,3.2-9.3,5-9.1c3,0.3,3.4-1.4,3.5-5.5c0.1-6.8-1.2-9.2-4.2-15.3
			c-6.9-14.1-8-10.7,1.4-11.9c6-0.8-1.5-15.2-15-23.2c-7.5-4.4-13.4-5.9-16.3-6.9c0-0.1,0-0.2,0-0.3c10.4-1.5,18.5,4.8,24.7,8.1
			c1.9,1,3.5,0,3.4-2.1c0-0.5-0.3-2-0.5-3.3c12.2,3,16.3,11.2,20.9,14.3c1.5,1,3,0.3,3.1-1.6c0.1-1.8-0.5-3.3-1.3-5.7
			c9.8-0.1,19,16.5,19.8,10.7c0.1-0.5,0-1-0.1-1.5c-2.5-14.3-18.1-18-23.3-20.5c1.3-1.7,0.3-0.6,2.5-2.5c1.1-1,1.2-2.2,0-3.1
			c-3.2-2.8-8.9-2.9-19.9-4.3c0.4-1.2,0.3-1.4,1.2-2.7c3.9-5.8-16.1-6-36.2,0.5c0.1-0.4,0.3-0.8,0.5-1c1-0.9,2-1.9,3.1-2.7
			c2.3-1.7,4.9-2.8,7.6-3.7c1.6-0.5,3.3-1,4.9-1.6c2.1-0.7,2.5-1.7,1.6-3.7c-0.2-0.5-0.4-0.9-0.7-1.5c0.9-0.5,1.7-1,2.6-1.4
			c3.3-1.5,6.7-2.6,10.2-3.3c1.7-0.3,3.4-0.7,5.1-1c0.6-0.1,1.2-0.3,1.8-0.5c1.3-0.6,1.7-1.6,0.9-2.9c-0.3-0.6-0.8-1.1-1.3-1.7
			c0.3-0.1,0.6-0.2,0.8-0.3c4.9-1.3,9.8-2.6,14.8-3c1.9-0.2,3.8-0.4,5.7-0.7c0.5-0.1,1-0.2,1.4-0.3c1-0.4,1.1-1.3,0.3-2
			c-0.1-0.1-0.2-0.2-0.4-0.3c-1.6-1.1-3.3-1.9-5.1-2.4c-4-1.1-8-1.7-12.1-1.7c-0.5,0-1.1,0-1.8,0c0.2-0.4,0.4-0.7,0.5-0.9
			c0.6-0.8,1.2-1.6,1.7-2.5c0.6-0.9,0.2-1.8-0.8-2.1c-0.4-0.1-0.9-0.1-1.3-0.1c-2.2,0-4.3,0.4-6.4,1c-6.4,1.7-12.4,4.1-18,7.6
			c-1.4,0.9-2.8,1.8-4.2,2.7c-0.3,0.2-0.6,0.4-1.1,0.6c0.1-0.6,0.1-1,0.1-1.4c0.1-0.9,0.3-1.8,0.4-2.8c0.1-1.3-0.7-1.8-1.9-1.5
			c-0.4,0.1-0.8,0.3-1.1,0.5c-0.6,0.4-1.2,0.8-1.7,1.2c-2.8,2.1-5.2,4.7-7.5,7.3c-6.8,7.7-10.7,15.4-12.3,18.2
			c0-0.3-0.1-0.5-0.1-0.6c0-0.3,0-0.5,0-0.8c0.4-4.9,0-9.8-0.7-14.6c0-0.3-0.1-0.7-0.2-1c-0.3-0.8-1.1-1-1.8-0.5
			c-0.3,0.3-0.6,0.7-0.8,1c-0.2,0.3-0.3,0.5-0.5,0.8c-0.1-0.1-0.2-0.2-0.2-0.2c-0.1-0.3-0.1-0.5-0.2-0.8c-1.4-6.9-3.7-13.6-7.1-19.8
			c-0.2-0.3-0.3-0.6-0.5-0.9c-0.7-0.8-1.6-0.8-2,0.2c-0.3,0.6-0.4,1.3-0.5,1.9c-0.1,0.6-0.2,1.3-0.3,2.1c-0.3-0.3-0.5-0.5-0.7-0.7
			c-1.1-1.1-2.1-2.2-3.3-3.2c-4.8-4.3-10.2-7.8-15.7-11c-0.2-0.1-0.3-0.2-0.5-0.3c-0.9-0.4-1.6,0.1-1.5,1.1c0.1,0.6,0.2,1.2,0.4,1.7
			c0.1,0.6,0.3,1.1,0.5,1.8c-0.3-0.1-0.5-0.1-0.7-0.2c-1.6-0.5-3.1-1-4.7-1.4c-5-1-10.1-1.5-15.3-1.3c-2.6,0.1-5.3,0.2-7.9,0.3
			c-0.7,0-1.5,0-1.8,0.9c-0.3,0.9,0.5,1.3,1.1,1.8c0.5,0.3,1,0.6,1.4,0.9c5.4,3.2,10.8,6.5,16.2,9.7c0.4,0.2,0.8,0.5,1.2,0.8
			c-0.3,0.2-0.4,0.4-0.6,0.5c-0.5,0.4-1,0.7-1.5,1.1c-0.9,0.8-0.9,1.8,0.1,2.5c0.5,0.4,1.1,0.6,1.7,0.9c1.8,0.8,3.6,1.4,5.3,2.3
			c5.8,3,11.2,6.5,16.4,10.4c0.1,0.1,0.2,0.2,0.3,0.3c-0.3,0.1-0.4,0.1-0.5,0.1c-1.5,0.3-1.9,1.2-1.2,2.5c0.3,0.6,0.6,1.1,1,1.6
			c4.7,6.9,3.6,5.1,4.2,6.3c-0.2,0-0.3,0-0.3-0.1c-1.2-0.8-7.1-6-17.6-11.3c-0.3-0.2-0.7-0.4-1-0.5c-1-0.3-1.7,0.3-1.6,1.3
			c0,0.4,0.1,0.8,0.2,1.3c-0.4-0.1-0.6-0.2-0.8-0.3c-2.1-1-4.2-1.6-6.4-2.2c-3.9-1-7.9-1.5-11.9-1.8c-0.4,0-0.9-0.1-1.3-0.1
			c-1.7,0-2.3,1-1.6,2.5c0.3,0.7,0.8,1.4,1.2,2c0.2,0.4,0.5,0.8,0.9,1.4c-0.7,0-1.1-0.1-1.6-0.1c-0.5,0-1,0-1.4,0
			c-5.2,0.1-10.1,1.8-14.9,3.3c-1.5,0.5-1.7,1.6-0.6,2.8c0.4,0.4,0.9,0.8,1.3,1.2c0.2,0.2,0.4,0.4,0.7,0.7c-2.3,1-4.3,2.3-6,3.9
			c-2,1.8-4.1,3.7-6.1,5.6c-2.6,2.4-4.8,5.1-6.8,8.1c-0.3,0.4-0.5,0.8-0.7,1.2c-0.3,0.7,0,1.4,0.7,1.6c0.4,0.1,0.9,0.2,1.3,0.1
			c1.3-0.3,2.7-0.6,4-1c5.7-2.2,11.3-4.5,17-6.7c0.3-0.1,0.7-0.2,1.1-0.4c-0.1,0.9-0.2,1.6-0.3,2.3c-0.1,1.1,0.5,1.7,1.6,1.6
			c0.7-0.1,1.5-0.3,2.1-0.7c1.6-0.8,3.3-1.6,4.9-2.4c3.9-2.1,8-3.7,12.2-5.1c0.3-0.1,0.5-0.1,0.9-0.2c-0.1,0.8-0.3,1.4-0.3,2
			c-0.2,1.2,0.3,1.8,1.4,2.2c0.5,0.1,17.6,1.4,21.7,2.4c-1.8,0.7-6.4,1.7-15.8,6.1c-15.9,7.5-12.2,8.7-9.2,11
			c-3.2,2.7-14.4,9.9-17.1,14.4c-1.1,1.8-1.7,3.6,0.3,4.3c3,1,4.6,0.1,3.4,3c-1.3,3.1-8.4,17.6-5.4,27.2c0.3,0.9,0.7,1.7,1.2,2.5
			c4.2,5.8,4.4-17.4,19.8-32.3c3.4,12.1,5.1-1.9,19-13.8c-0.1,0.4-0.3,0.7-0.6,1c-3,3.4-6.8,8.6-7.9,12.8c-0.5,2.1,1.1,2.3,2.8,2.8
			c-0.1,0.3-0.1,0.5-0.2,0.7c-3.1,4.9-6,8.9-8.4,14.2c-4.8,10.4-7.4,25.4-1.2,20.1c0.4-0.3,0.9-0.6,1.4-1
			c1.8,6.8,6.8,13.3,19.1,20.1c4.9,2.7,7.3,2.5,1.5-4.8c-3.3-4.1-7.7-10.9-5.9-22.9c0.4-2.7,1.1-6.6,2.3-8.9c0.6,0.8,1.1,1.4,1.6,2
			c2.4,2.6,3.7,1.5,4,0.1c0.4-2-0.2-14,6.2-24c0.2-0.4,0.4-0.8,0.9-1c0.3,0.6,0.5,1.3,0.8,1.8c0.3,0.6,0.7,1.2,1.1,1.6
			c0.8,0.8,1.9,0.5,2.4-0.5c0.2-0.4,0.3-0.9,0.4-1.4c0.2-1.1,0.4-2.2,0.7-3.3c-0.6,34.8,0.6,99.2,0.6,99.2
			c-3.7,11.8-15.9,21-17.9,13.5c-3.7-13.9,8.1-40.6-7.7-50.7c-8.3-5.3-17.3-7-27.3-4c-9.7,2.9-14.7,8.9-17.8,17.6
			c-0.1,0.3-0.2,0.6-0.7,0.6c-1.3-0.1-1.7,1.7-0.4,2.2c4.9,1.8,5.4,2,6,0.8c0.2-0.4,0.3-0.9-0.1-1.1c-0.8-0.3-0.4-0.8-0.3-1.2
			c2.9-7.9,9.1-12.5,16.1-13.4c5.4-0.7,8.2,3.6,8.7,9c0.3,2.7,0.2,5.4,0,8.2c0,0.6-0.3,0.9-0.9,1.1c-11.7,3.7-13.2,4.3-15.3,5.2
			c-25,11.2-14.9,40.4,5.9,33.8c5.8-1.8,9.9-5.1,13.4-7.5c1.5,2.4,3.5,6.1,7.5,8.1c13.8,7.1,26.2,0.6,31.6-11.2
			c0.2-0.4,0.3-0.9,0.7-1.3c0.2,0.3,0.3,0.7,0.4,1.1c3.4,13.5,19.7,17.7,31.4,8.6c4.6-3.6,7.4-8,9.1-10.6c0.3,0.4,0.2,0.7,0.2,1.1
			c0,9.5,0,10-0.3,11.1c-0.3,1.4-1.7-0.1-1.8,1.8c0,1,0.4,2,1.8,2c1.2,0,22.7-0.5,24.1-0.8c1.4-0.3,1.4-2.6-0.1-2.7
			c-1.1,0-0.7-0.2-0.7-9.4c-0.1-41.5-0.4-40.6,0.1-41.3c1.9-2.3,3.9-4.4,6.5-5.9c2.2-1.3,4.7-2.3,6.1-0.5c4.9,5.9,2.8,28.4,3.2,52.7
			c0.1,3,0.3,3.6-0.4,3.6c-1.2-0.1-1,1.8-0.5,3c0.1,0.3,0.5,0.4,0.9,0.4c23.1,1.1,22.1,0.9,21.8-1.6c-0.1-0.8-0.4-1.2-1.2-1.3
			c-0.5-0.1-0.7-0.3-0.7-0.8c-0.9-24.5,1-34.2-0.9-45.9c-0.1-0.5,0-0.8,0.4-1.2c2.7-2.9,6.1-6.3,9.6-8.3c2.5-1.4,4.3-1.7,4.4,4.2
			c0.3,16.1-3,34.9,2.1,45.4c4.3,8.8,11.8,12.1,19.5,11.1c5.8-0.7,9.5-4,12.4-9.2c0.5-1,1.1,0.6,1.9-0.7
			C367.9,270.4,367.9,269.8,367.5,269.4z M175.6,264.4c-15.7,10-14.9-16.6-2.7-21.3c0.6-0.2,1.2-0.5,1.9-0.5c0.1,0.5,0,1,0,1.5
			c-0.4,6.5-0.6,13,1.3,19.1C176.3,264.2,176.1,264.1,175.6,264.4z"/>
		<path class="st2" d="M98,219.2c-0.2,0.2-0.3,0.5-0.6,0.6c-0.1-0.1-0.2-0.2-0.2-0.3c-0.1-6.8,0.4-7.1-1.6-7.3
			c-3.4-0.4-13.9-0.9-22.2-0.6c-8.4,0.3-9,0.1-9.2,1.8c-0.2,2.3,0.2,2.5,1.8,2.5c5.9,0.1,5.7-0.3,5.7,0.8c0,0-0.4,21.3,1,82.2
			c0,1.1,0,1.1-1.1,1.2c-1.7,0.2-1.8,1.5-1.2,3c0.3,0.7,1.2,0.6,2.5,0.6c26.3-0.3,23.9-0.4,25.7-0.2c1.2,0.2,1.5-1.7,1.1-2.9
			c-0.2-0.7-0.9-0.8-1.5-0.8c-0.9-0.1-1-0.1-1-1.1c0-0.8-0.6-22.2-0.2-22.9c16,8.3,33.3,3.2,39.5-16.7
			C147.1,225,116.7,199.1,98,219.2z M113.6,267.4c-1.9,4.4-6.9,7.1-16.2,2.4c-0.8-0.4-0.5,0.6-0.3-20.5c0.1,0,0.1,0,0.2,0
			c0-6.3,0-12.7,0-19c0-3.2,5-9.7,11.3-11.2C117.9,216.8,120.4,251.4,113.6,267.4z"/>
	</g>
	<g>
		<path class="st1" d="M130.4,303.4c-2.6,1-14.4,18.1-33.6,20.1c-3.7,0.4-12.2,0.6-15.2-2.4c-0.6-0.6-0.4-1,0-1.6
			c1.7-2.7,1.3,0.3,8,0.9c8.8,0.8,16.6-1.5,23.8-6.6c7.9-5.6,15-13.2,17.1-17.6c1.3-2.8,7.3-2.4,8.2,2.7c0.8,4.4,0.3,28.9,6.4,55.3
			c0.2,0.9,0.4,1.8,0.8,2.7c2.6-2.3,10.8-41.8,11.5-45.3c0.1-0.6-0.1-1-0.6-1.4c-7.5-5.8-9.6-14.4-7.7-20.3
			c3.2-9.8,18.7-11.4,13,18.9c-0.4,2.3,11.9,5,14.5,5.7c0.7,0.2,0.7,0.2,0.9-0.5c0.8-3.2,0.4-3.5,1.8-3.5c1.2,0,4.8,0.2,5.9,0.8
			c1,0.5,0.9,1.5,0.6,2.8c-3.7,17.3-0.3,44.5,3.6,49.3c1-0.4,2.5-4.4,2.8-5.4c9.5-28.5,9.1-26.3,9.1-27.8
			c-0.9-41.8,29.6-53.8,32.6-40.1c2.1,9.7-16.1,23-22.6,29.4c-2.2,2.2-0.5,20.7,0.5,26.5c0.4-0.1,0.3-0.4,0.4-0.6
			c7.7-28,32.8-47.1,41-23.7c0.4-0.1,10.9-7.5,11.2-7.8c5.9-4.3,4.8-2.5,5.4-8.4c0.6-4.9,2.1-13.1,2.5-14.8c0.4-1.5,0.6-1.2,6.4-0.8
			c16.4,1.1,18.9-0.4,17.6,4.4c-0.4,1.3,0.1,0.7-15.8,0.5c-0.8,0-0.8,0-0.8,0.7c-0.1,2.5-1,10.3-1,10.6c9.4-2.2,10.6-2.7,10.9-0.9
			c0.3,2,0.4,2.5-0.9,2.8c-10.6,2.9-10.6,2.6-10.7,3.8c-0.1,1.6-0.9,9.6-1,14c-0.3,7.4,0.1,26.7,1.4,32.2c0.2,0.8,0.2,0.9,1,0.6
			c8.8-2.6,9.1-3.2,9.8-2c0.4,0.6,0.6,1.3,0.8,2c0.3,1.5-0.4,1.4-6.6,3.3c-4.6,1.4-7.8,2.6-7.8,2.6c-1.4,0.4-2.5,0.9-5-9.5
			c-4.4-18-1.7-38.2-1.8-39.4c-0.3-0.2-0.5,0.1-0.6,0.2c-15,11-14.1,10-14,11.3c2.8,54.8-68.2,42.8-9.2,0.7c0.3-0.2,0.5-0.5,0.4-0.9
			c-0.1-2.9-0.6-7-2.2-9.2c-3.9-5.3-20.5,7.3-26.3,27.9c-1,3.5-1.3,7.1-1.7,10.7c-0.1,1.2-0.3,1.4-1.5,1.7c-3.7,0.9-3.9,1.4-5-0.3
			c-3.3-5.1-5.2-11.7-6.2-17.6c-0.4,0.2-0.4,0.6-0.5,1c-4.7,14.2-6.4,20.5-9,23.6c-7.8,9.3-21.9-14.9-16.3-47.1
			c-5.1-1.5-10.4-2.3-15.2-4.9c-1.9,9.4-8.1,37.3-11.9,45c-1.8,3.6-4.6,4.1-6.8,2.7c-3.1-2-7.7-11.5-9.7-23.6
			C130.7,322.3,130.4,303.4,130.4,303.4z M245.4,333.4c-0.8,0.1-8.2,6.7-8.7,7.3c-3.5,3.2-8.7,8.3-10.3,13c-2.6,7.6,5.6,11.1,13.1,0
			C241.6,350.5,244.8,342.4,245.4,333.4z M212.4,312.4c0.6,0.1,10.2-9.5,10.6-9.9c16.9-18.1-1.4-19.6-10,7.6
			C212.7,310.9,212.5,311.7,212.4,312.4z M158.3,306.2c0.7-4.8,1.4-13.4-0.5-17.8c-0.5-1.1-0.7-1.1-1.5-0.3
			c-3.2,3.3-4,11.1,1.6,17.8C157.9,306.1,158,306.2,158.3,306.2z"/>
		<path class="st1" d="M316,328.8c-3.1-2.9-5.9-5.3-8.2-8.2c-7-8.8-6-18.8,0.8-25.2c9.1-8.5,24.4,0.2,22.5,13
			c-0.9,5.9-1.7,5.6-2.9,5.1c-1.6-0.7-2.3-0.8-1.8-2c1.7-4.8,1.4-10.1-2.5-13.6c-5.2-4.7-13.8,1.3-12.8,12.3
			c0.6,6.6,5.4,10,10.2,14.8c0.4,0.4,0.7,0.2,1.1,0c7.9-4.2,14.4-4.5,20.4-2.9c2.5,0.7,4.6,1.3,6.9,2.7c1.2,0.7,1.3,1.2,0.6,2.4
			c-0.5,0.9-0.8,0.9-1.8,0.6c-4.9-1.9-11.9-5.8-23.5,0.1c-0.6,0.3-0.6,0.4-0.1,0.9c1,1,1.8,2.1,2.6,3.2c15.7,21.5-7.2,39-20.7,27.9
			c-9.3-7.6-2.4-22,8.6-30.4C315.6,329.2,315.9,329.1,316,328.8z M318.8,331.6c-1.3,0.8-12.6,9.1-11.9,20.2
			c0.5,7.8,11.1,11.2,16.4,3.3C328.4,347.6,325.1,337.8,318.8,331.6z"/>
		<path class="st1" d="M180.6,296.5c4.3-2.1,7.1-0.1,7.8,2c0.7,2.4-1.1,4.9-3.6,5.2C178.8,304.2,177.8,297.8,180.6,296.5z"/>
	</g>
</g>
</svg>
